<?xml version="1.0" standalone="no"?>
<!DOCTYPE svg PUBLIC "-//W3C//DTD SVG 20010904//EN"
 "http://www.w3.org/TR/2001/REC-SVG-20010904/DTD/svg10.dtd">
<svg version="1.0" xmlns="http://www.w3.org/2000/svg"
 width="158.000000pt" height="158.000000pt" viewBox="0 0 158.000000 158.000000"
 preserveAspectRatio="xMidYMid meet">
<metadata>
Created by potrace 1.14, written by Peter Selinger 2001-2017
</metadata>
<g transform="translate(0.000000,158.000000) scale(0.100000,-0.100000)"
fill="#000000" stroke="none">
<path d="M0 790 l0 -790 790 0 790 0 0 790 0 790 -790 0 -790 0 0 -790z m550
587 c36 -18 45 -72 32 -190 -14 -112 -22 -134 -58 -143 -22 -6 -25 -11 -19
-33 10 -41 32 -69 57 -73 20 -3 23 -10 26 -51 4 -61 -9 -77 -63 -77 -51 0 -59
9 -73 75 -16 75 -30 105 -48 105 -14 0 -15 -10 -9 -79 6 -73 5 -80 -13 -90
-12 -6 -37 -11 -56 -11 l-36 0 -2 213 c-4 278 -3 330 5 350 5 15 22 17 119 17
70 0 122 -5 138 -13z m317 -9 c10 -13 27 -78 37 -148 8 -52 46 -379 46 -396 0
-10 -14 -14 -55 -14 -58 0 -57 -1 -67 65 -3 16 -11 20 -43 20 -39 0 -40 -1
-45 -40 l-5 -40 -52 -3 c-53 -3 -53 -3 -53 27 0 62 62 516 72 528 14 17 152
18 165 1z m255 0 c11 -10 19 -48 28 -143 19 -192 28 -200 29 -24 1 176 4 182
68 177 l38 -3 -3 -260 c-1 -143 -5 -270 -7 -282 -5 -20 -12 -23 -50 -23 -79 0
-91 10 -99 82 -17 159 -29 238 -36 238 -4 0 -6 -55 -3 -122 3 -68 1 -139 -4
-158 -9 -33 -12 -35 -49 -35 l-39 0 -3 270 c-1 148 0 275 3 282 6 17 106 17
127 1z m-265 -610 c14 -11 15 -40 10 -258 -3 -135 -8 -252 -12 -262 -12 -30
-60 -41 -161 -36 -67 4 -99 10 -105 19 -10 16 -10 365 0 474 l6 70 85 6 c108
8 157 4 177 -13z m-415 -20 c58 -25 82 -61 97 -142 14 -76 14 -143 0 -223 -12
-70 -40 -113 -92 -139 -34 -18 -149 -37 -171 -28 -14 5 -16 42 -16 286 l0 281
67 -7 c36 -4 88 -16 115 -28z m610 18 c9 -9 19 -59 26 -134 7 -66 17 -133 24
-149 10 -25 13 -13 29 112 24 185 24 185 98 185 33 0 62 -3 64 -7 3 -5 8 -130
12 -279 l7 -271 -47 -7 c-26 -4 -49 -5 -52 -2 -3 3 -5 66 -4 141 1 77 -2 135
-7 135 -5 0 -14 -39 -20 -86 -7 -48 -20 -101 -30 -118 -17 -28 -65 -57 -77
-45 -3 3 -16 58 -29 123 -13 64 -27 120 -31 124 -4 4 -5 -52 -2 -125 7 -145 8
-143 -59 -143 l-34 0 0 264 c0 145 3 271 6 280 8 21 106 22 126 2z"/>
<path d="M393 1243 c-14 -5 -16 -80 -4 -123 6 -21 13 -25 41 -22 19 1 36 5 38
7 12 12 20 109 11 126 -9 18 -56 25 -86 12z"/>
<path d="M777 1230 c-4 -14 -8 -72 -9 -130 -3 -102 -2 -105 20 -108 21 -3 22
0 22 65 -1 89 -24 209 -33 173z"/>
<path d="M680 630 c-11 -7 -16 -35 -18 -120 -2 -61 -1 -123 2 -136 6 -23 11
-25 58 -22 52 3 52 3 61 43 13 62 4 224 -13 236 -19 11 -71 11 -90 -1z"/>
<path d="M360 496 c0 -135 0 -136 23 -136 48 0 62 22 65 107 2 47 -2 94 -10
118 -11 34 -17 40 -45 43 l-33 3 0 -135z"/>
</g>
</svg>
